<svg width="38" height="43" xmlns="http://www.w3.org/2000/svg" xmlns:xlink="http://www.w3.org/1999/xlink" overflow="hidden"><defs><clipPath id="clip0"><rect x="667" y="123" width="38" height="43"/></clipPath></defs><g clip-path="url(#clip0)" transform="translate(-667 -123)"><path d="M10.75 0C12.2365 0 13.4375 1.20098 13.4375 2.6875L13.4375 5.375 24.1875 5.375 24.1875 2.6875C24.1875 1.20098 25.3885 0 26.875 0 28.3615 0 29.5625 1.20098 29.5625 2.6875L29.5625 5.375 33.5938 5.375C35.8193 5.375 37.625 7.18066 37.625 9.40625L37.625 13.4375 0 13.4375 0 9.40625C0 7.18066 1.80566 5.375 4.03125 5.375L8.0625 5.375 8.0625 2.6875C8.0625 1.20098 9.26348 0 10.75 0ZM0 16.125 37.625 16.125 37.625 38.9688C37.625 41.1943 35.8193 43 33.5938 43L4.03125 43C1.80566 43 0 41.1943 0 38.9688L0 16.125ZM5.375 22.8438 5.375 25.5312C5.375 26.2703 5.97969 26.875 6.71875 26.875L9.40625 26.875C10.1453 26.875 10.75 26.2703 10.75 25.5312L10.75 22.8438C10.75 22.1047 10.1453 21.5 9.40625 21.5L6.71875 21.5C5.97969 21.5 5.375 22.1047 5.375 22.8438ZM16.125 22.8438 16.125 25.5312C16.125 26.2703 16.7297 26.875 17.4688 26.875L20.1562 26.875C20.8953 26.875 21.5 26.2703 21.5 25.5312L21.5 22.8438C21.5 22.1047 20.8953 21.5 20.1562 21.5L17.4688 21.5C16.7297 21.5 16.125 22.1047 16.125 22.8438ZM28.2188 21.5C27.4797 21.5 26.875 22.1047 26.875 22.8438L26.875 25.5312C26.875 26.2703 27.4797 26.875 28.2188 26.875L30.9062 26.875C31.6453 26.875 32.25 26.2703 32.25 25.5312L32.25 22.8438C32.25 22.1047 31.6453 21.5 30.9062 21.5L28.2188 21.5ZM5.375 33.5938 5.375 36.2812C5.375 37.0203 5.97969 37.625 6.71875 37.625L9.40625 37.625C10.1453 37.625 10.75 37.0203 10.75 36.2812L10.75 33.5938C10.75 32.8547 10.1453 32.25 9.40625 32.25L6.71875 32.25C5.97969 32.25 5.375 32.8547 5.375 33.5938ZM17.4688 32.25C16.7297 32.25 16.125 32.8547 16.125 33.5938L16.125 36.2812C16.125 37.0203 16.7297 37.625 17.4688 37.625L20.1562 37.625C20.8953 37.625 21.5 37.0203 21.5 36.2812L21.5 33.5938C21.5 32.8547 20.8953 32.25 20.1562 32.25L17.4688 32.25ZM26.875 33.5938 26.875 36.2812C26.875 37.0203 27.4797 37.625 28.2188 37.625L30.9062 37.625C31.6453 37.625 32.25 37.0203 32.25 36.2812L32.25 33.5938C32.25 32.8547 31.6453 32.25 30.9062 32.25L28.2188 32.25C27.4797 32.25 26.875 32.8547 26.875 33.5938Z" stroke="#FFFFFF" stroke-width="0.0839832" fill="#FFFFFF" transform="matrix(1.00997 0 0 1 667 123)"/></g></svg>