<svg width="96" height="96" xmlns="http://www.w3.org/2000/svg" xmlns:xlink="http://www.w3.org/1999/xlink" overflow="hidden"><defs><clipPath id="clip0"><rect x="199" y="94" width="96" height="96"/></clipPath></defs><g clip-path="url(#clip0)" transform="translate(-199 -94)"><path d="M247 154C240.4 154 235 148.6 235 142 235 135.4 240.4 130 247 130 253.6 130 259 135.4 259 142 259 148.6 253.6 154 247 154ZM274 134.5C273.4 132.3 272.5 130.2 271.4 128.3L273.9 120.8 268.2 115.1 260.7 117.6C258.7 116.5 256.6 115.6 254.4 115L251 108 243 108 239.5 115C237.3 115.6 235.2 116.5 233.3 117.6L225.8 115.1 220.1 120.8 222.6 128.3C221.5 130.3 220.6 132.4 220 134.6L213 138 213 146 220 149.5C220.6 151.7 221.5 153.8 222.6 155.7L220.1 163.2 225.8 168.9 233.3 166.4C235.3 167.5 237.4 168.4 239.6 169L243.1 176 251.1 176 254.6 169C256.8 168.4 258.9 167.5 260.8 166.4L268.3 168.9 274 163.2 271.5 155.7C272.6 153.7 273.5 151.6 274.1 149.4L281.1 145.9 281.1 137.9 274 134.5Z"/></g></svg>