<svg width="44" height="51" xmlns="http://www.w3.org/2000/svg" xmlns:xlink="http://www.w3.org/1999/xlink" overflow="hidden"><defs><clipPath id="clip0"><rect x="654" y="116" width="44" height="51"/></clipPath></defs><g clip-path="url(#clip0)" transform="translate(-654 -116)"><path d="M12.5714 0C14.3098 0 15.7143 1.40446 15.7143 3.14286L15.7143 6.28571 28.2857 6.28571 28.2857 3.14286C28.2857 1.40446 29.6902 0 31.4286 0 33.167 0 34.5714 1.40446 34.5714 3.14286L34.5714 6.28571 39.2857 6.28571C41.8884 6.28571 44 8.39732 44 11L44 15.7143 0 15.7143 0 11C0 8.39732 2.11161 6.28571 4.71429 6.28571L9.42857 6.28571 9.42857 3.14286C9.42857 1.40446 10.833 0 12.5714 0ZM0 18.8571 44 18.8571 44 45.5714C44 48.1741 41.8884 50.2857 39.2857 50.2857L4.71429 50.2857C2.11161 50.2857 0 48.1741 0 45.5714L0 18.8571ZM6.28571 26.7143 6.28571 29.8571C6.28571 30.7214 6.99286 31.4286 7.85714 31.4286L11 31.4286C11.8643 31.4286 12.5714 30.7214 12.5714 29.8571L12.5714 26.7143C12.5714 25.85 11.8643 25.1429 11 25.1429L7.85714 25.1429C6.99286 25.1429 6.28571 25.85 6.28571 26.7143ZM18.8571 26.7143 18.8571 29.8571C18.8571 30.7214 19.5643 31.4286 20.4286 31.4286L23.5714 31.4286C24.4357 31.4286 25.1429 30.7214 25.1429 29.8571L25.1429 26.7143C25.1429 25.85 24.4357 25.1429 23.5714 25.1429L20.4286 25.1429C19.5643 25.1429 18.8571 25.85 18.8571 26.7143ZM33 25.1429C32.1357 25.1429 31.4286 25.85 31.4286 26.7143L31.4286 29.8571C31.4286 30.7214 32.1357 31.4286 33 31.4286L36.1429 31.4286C37.0071 31.4286 37.7143 30.7214 37.7143 29.8571L37.7143 26.7143C37.7143 25.85 37.0071 25.1429 36.1429 25.1429L33 25.1429ZM6.28571 39.2857 6.28571 42.4286C6.28571 43.2929 6.99286 44 7.85714 44L11 44C11.8643 44 12.5714 43.2929 12.5714 42.4286L12.5714 39.2857C12.5714 38.4214 11.8643 37.7143 11 37.7143L7.85714 37.7143C6.99286 37.7143 6.28571 38.4214 6.28571 39.2857ZM20.4286 37.7143C19.5643 37.7143 18.8571 38.4214 18.8571 39.2857L18.8571 42.4286C18.8571 43.2929 19.5643 44 20.4286 44L23.5714 44C24.4357 44 25.1429 43.2929 25.1429 42.4286L25.1429 39.2857C25.1429 38.4214 24.4357 37.7143 23.5714 37.7143L20.4286 37.7143ZM31.4286 39.2857 31.4286 42.4286C31.4286 43.2929 32.1357 44 33 44L36.1429 44C37.0071 44 37.7143 43.2929 37.7143 42.4286L37.7143 39.2857C37.7143 38.4214 37.0071 37.7143 36.1429 37.7143L33 37.7143C32.1357 37.7143 31.4286 38.4214 31.4286 39.2857Z" stroke="#FFFFFF" stroke-width="0.0982129" fill="#FFFFFF" transform="matrix(1 0 0 1.0142 654 116)"/></g></svg>