<svg width="130" height="166" xmlns="http://www.w3.org/2000/svg" xmlns:xlink="http://www.w3.org/1999/xlink" overflow="hidden"><defs><clipPath id="clip0"><rect x="2292" y="947" width="130" height="166"/></clipPath></defs><g clip-path="url(#clip0)" transform="translate(-2292 -947)"><path d="M2313.76 1009.73C2307.93 1009.73 2303.21 1014.42 2303.21 1020.22L2303.21 1092.79C2303.21 1098.59 2307.93 1103.28 2313.76 1103.28L2400.3 1103.28C2406.12 1103.28 2410.84 1098.59 2410.84 1092.79L2410.84 1020.22C2410.84 1014.42 2406.12 1009.73 2400.3 1009.73ZM2304.74 1000 2409.26 1000C2416.3 1000 2422 1005.67 2422 1012.67L2422 1100.33C2422 1107.33 2416.3 1113 2409.26 1113L2304.74 1113C2297.7 1113 2292 1107.33 2292 1100.33L2292 1012.67C2292 1005.67 2297.7 1000 2304.74 1000Z" fill="#FFFFFF" fill-rule="evenodd"/><path d="M2356.34 947.968C2380.91 947.968 2400.84 967.923 2400.84 992.539L2400.09 999.968 2399.93 998.413C2395.78 978.103 2377.84 962.825 2356.34 962.825 2334.83 962.825 2316.89 978.103 2312.74 998.413L2312.58 999.968 2311.84 992.539C2311.84 967.923 2331.76 947.968 2356.34 947.968Z" fill="#FFFFFF" fill-rule="evenodd"/></g></svg>