<svg width="58" height="59" xmlns="http://www.w3.org/2000/svg" xmlns:xlink="http://www.w3.org/1999/xlink" overflow="hidden"><defs><clipPath id="clip0"><rect x="14" y="14" width="58" height="59"/></clipPath></defs><g clip-path="url(#clip0)" transform="translate(-14 -14)"><path d="M13.8958 8.45833 44.1042 8.45833 44.1042 49.5417 13.8958 49.5417 13.8958 8.45833ZM10.2708 53.1667 47.7292 53.1667 47.7292 4.83333 10.2708 4.83333 10.2708 53.1667Z" transform="matrix(1 0 0 1.01724 14 14)"/><path d="M30.2083 13.8958 40.4792 13.8958 40.4792 16.3125 30.2083 16.3125Z" transform="matrix(1 0 0 1.01724 14 14)"/><path d="M30.2083 23.5625 40.4792 23.5625 40.4792 25.9792 30.2083 25.9792Z" transform="matrix(1 0 0 1.01724 14 14)"/><path d="M30.2083 42.8958 40.4792 42.8958 40.4792 45.3125 30.2083 45.3125Z" transform="matrix(1 0 0 1.01724 14 14)"/><path d="M30.2083 33.2292 40.4792 33.2292 40.4792 35.6458 30.2083 35.6458Z" transform="matrix(1 0 0 1.01724 14 14)"/><path d="M26.4625 12.5667 24.7708 10.875 20.7833 14.8625 19.2125 13.2917 17.5208 14.9833 20.7833 18.2458Z" transform="matrix(1 0 0 1.01724 14 14)"/><path d="M26.4625 22.2333 24.7708 20.5417 20.7833 24.5292 19.2125 22.9583 17.5208 24.65 20.7833 27.9125Z" transform="matrix(1 0 0 1.01724 14 14)"/><path d="M26.4625 31.9 24.7708 30.2083 20.7833 34.1958 19.2125 32.625 17.5208 34.3167 20.7833 37.5792Z" transform="matrix(1 0 0 1.01724 14 14)"/><path d="M26.4625 41.4458 24.7708 39.7542 20.7833 43.7417 19.2125 42.1708 17.5208 43.8625 20.7833 47.125Z" transform="matrix(1 0 0 1.01724 14 14)"/></g></svg>