<svg width="96" height="96" xmlns="http://www.w3.org/2000/svg" xmlns:xlink="http://www.w3.org/1999/xlink" overflow="hidden"><defs><clipPath id="clip0"><rect x="302" y="90" width="96" height="96"/></clipPath></defs><g clip-path="url(#clip0)" transform="translate(-302 -90)"><path d="M379.88 156.37C381.957 154.184 381.867 150.728 379.681 148.651 378.669 147.689 377.326 147.152 375.93 147.15L375.8 147.15 374.8 147.15 374.92 147.15C377.815 146.305 379.476 143.273 378.631 140.379 377.825 137.615 375.01 135.952 372.2 136.58L358.31 140.14C359.85 138.69 361.13 137.32 361.99 136.37L376.08 131.37C377.878 130.732 378.818 128.758 378.18 126.96 377.542 125.162 375.568 124.222 373.77 124.86L360.58 129.53 376.07 118.75C377.662 117.692 378.095 115.545 377.037 113.953 375.979 112.362 373.832 111.929 372.24 112.986 372.2 113.013 372.159 113.041 372.12 113.07L358.62 122.48 370 109.45C371.178 107.946 370.914 105.771 369.41 104.592 368.016 103.5 366.022 103.637 364.79 104.91L352.61 118.91 360.89 103.38C361.705 101.652 360.965 99.5898 359.237 98.7746 357.626 98.0151 355.703 98.6014 354.79 100.13L344.79 118.79C343.109 120.423 341.266 121.881 339.29 123.14L339.29 122.91C339.97 117.58 339.12 111.56 336.46 107.67 335.449 106.193 333.432 105.814 331.955 106.825 330.478 107.836 330.099 109.853 331.11 111.33 332.38 113.18 331.89 117.03 331.36 121.1 330.78 126.11 330 132.11 332 137.83L325.63 145.13 320.63 145.13C319.525 145.13 318.63 146.025 318.63 147.13L318.63 162.13C318.63 163.235 319.525 164.13 320.63 164.13L329.7 164.13C333.99 169.77 345.7 170.34 350.17 170.34L350.27 170.34 363 177.12C363.785 177.536 364.661 177.753 365.55 177.75 368.565 177.749 371.009 175.304 371.008 172.288 371.008 170.534 370.164 168.886 368.74 167.86L372.74 168.78C375.679 169.427 378.589 167.583 379.26 164.65 379.913 161.71 378.067 158.796 375.13 158.13L374.93 158.13 375.93 158.13C377.432 158.111 378.861 157.474 379.88 156.37ZM358.68 154.47C357.575 154.362 356.593 155.17 356.485 156.275 356.377 157.38 357.185 158.362 358.29 158.47L374.34 162C375.123 162.179 375.618 162.954 375.45 163.74 375.361 164.114 375.132 164.44 374.81 164.65 374.485 164.861 374.087 164.93 373.71 164.84L355.29 160.73C354.214 160.48 353.139 161.15 352.889 162.226 352.684 163.113 353.103 164.027 353.91 164.45L366.28 171C367.017 171.327 367.35 172.189 367.023 172.926 366.696 173.664 365.833 173.996 365.096 173.669 365.032 173.641 364.97 173.608 364.91 173.57L351.7 166.57C351.41 166.418 351.087 166.339 350.76 166.34L350.76 166.34C343.17 166.44 334.55 164.87 332.57 161.18 332.221 160.533 331.545 160.13 330.81 160.13L322.62 160.13 322.62 149.13 329.44 149.13C330.177 149.128 330.854 148.721 331.2 148.07 333.76 143.3 338.25 140.13 342.2 137.35L342.56 137.09C346.39 134.39 349.7 132.09 350.38 129.09 350.538 128.425 351.205 128.014 351.87 128.17 352.192 128.238 352.471 128.437 352.64 128.72 352.816 128.999 352.874 129.338 352.8 129.66 351.92 133.43 348.57 137.82 344.27 140.85L344.2 141 344.11 141.06C343.197 141.682 342.962 142.926 343.584 143.839 343.858 144.241 344.269 144.529 344.74 144.65 347.142 145.297 349.606 145.693 352.09 145.83 352.285 145.835 352.48 145.815 352.67 145.77L373.15 140.5C373.522 140.402 373.918 140.456 374.25 140.65 374.585 140.844 374.826 141.165 374.92 141.54 375.132 142.307 374.685 143.102 373.92 143.32L356.92 147.7C355.849 147.969 355.198 149.055 355.466 150.126 355.69 151.017 356.491 151.642 357.41 151.64L357.46 151.64 375.97 151.2 375.97 151.2C376.774 151.267 377.371 151.972 377.304 152.776 377.245 153.487 376.681 154.051 375.97 154.11Z"/></g></svg>