<svg width="75" height="75" xmlns="http://www.w3.org/2000/svg" xmlns:xlink="http://www.w3.org/1999/xlink" overflow="hidden"><defs><clipPath id="clip0"><rect x="150" y="7" width="75" height="75"/></clipPath></defs><g clip-path="url(#clip0)" transform="translate(-150 -7)"><path d="M175.781 31.0625C175.781 34.9458 172.633 38.0938 168.75 38.0938 164.867 38.0938 161.719 34.9458 161.719 31.0625 161.719 27.1792 164.867 24.0312 168.75 24.0312 172.633 24.0312 175.781 27.1792 175.781 31.0625Z"/><path d="M213.281 31.0625C213.281 34.9458 210.133 38.0938 206.25 38.0938 202.367 38.0938 199.219 34.9458 199.219 31.0625 199.219 27.1792 202.367 24.0312 206.25 24.0312 210.133 24.0312 213.281 27.1792 213.281 31.0625Z"/><path d="M201.562 64.9688 201.562 57.9375C201.562 56.8438 201.094 55.75 200.156 55.125 198.281 53.5625 195.781 52.4688 193.281 51.8438 191.562 51.375 189.531 50.9062 187.5 50.9062 185.625 50.9062 183.594 51.2188 181.719 51.8438 179.219 52.4688 176.875 53.7188 174.844 55.125 173.906 55.9062 173.438 56.8438 173.438 57.9375L173.438 64.9688 201.562 64.9688Z"/><path d="M194.531 42C194.531 45.8833 191.383 49.0312 187.5 49.0312 183.617 49.0312 180.469 45.8833 180.469 42 180.469 38.1167 183.617 34.9688 187.5 34.9688 191.383 34.9688 194.531 38.1167 194.531 42Z"/><path d="M218.906 44.1875C217.031 42.625 214.531 41.5312 212.031 40.9062 210.312 40.4375 208.281 39.9688 206.25 39.9688 204.375 39.9688 202.344 40.2812 200.469 40.9062 199.531 41.2188 198.594 41.5312 197.656 42L197.656 42.1562C197.656 44.8125 196.562 47.3125 194.844 49.0312 197.812 49.9688 200.156 51.2188 202.031 52.625 202.5 53.0938 202.969 53.4062 203.281 54.0312L220.312 54.0312 220.312 47C220.312 45.9062 219.844 44.8125 218.906 44.1875Z"/><path d="M172.969 52.625 172.969 52.625C175.156 51.0625 177.656 49.8125 180.156 49.0312 178.438 47.1562 177.344 44.8125 177.344 42.1562 177.344 42 177.344 42 177.344 41.8438 176.406 41.5312 175.469 41.0625 174.531 40.9062 172.812 40.4375 170.781 39.9688 168.75 39.9688 166.875 39.9688 164.844 40.2812 162.969 40.9062 160.469 41.6875 158.125 42.7812 156.094 44.1875 155.156 44.8125 154.688 45.9062 154.688 47L154.688 54.0312 171.562 54.0312C172.031 53.4062 172.344 53.0938 172.969 52.625Z"/></g></svg>