<svg width="96" height="96" xmlns="http://www.w3.org/2000/svg" xmlns:xlink="http://www.w3.org/1999/xlink" overflow="hidden"><defs><clipPath id="clip0"><rect x="737" y="179" width="96" height="96"/></clipPath></defs><g clip-path="url(#clip0)" transform="translate(-737 -179)"><path d="M814.88 245.37C816.957 243.184 816.867 239.728 814.681 237.651 813.669 236.689 812.326 236.152 810.93 236.15L810.8 236.15 809.8 236.15 809.92 236.15C812.815 235.305 814.476 232.273 813.631 229.379 812.825 226.615 810.01 224.952 807.2 225.58L793.31 229.14C794.85 227.69 796.13 226.32 796.99 225.37L811.08 220.37C812.878 219.732 813.818 217.758 813.18 215.96 812.542 214.162 810.568 213.222 808.77 213.86L795.58 218.53 811.07 207.75C812.662 206.693 813.095 204.545 812.037 202.953 810.979 201.362 808.832 200.929 807.24 201.986 807.2 202.013 807.159 202.041 807.12 202.07L793.62 211.48 805 198.45C806.178 196.946 805.914 194.771 804.41 193.592 803.016 192.5 801.022 192.637 799.79 193.91L787.61 207.91 795.89 192.38C796.705 190.652 795.965 188.59 794.237 187.775 792.627 187.015 790.703 187.601 789.79 189.13L779.79 207.79C778.109 209.423 776.266 210.881 774.29 212.14L774.29 211.91C774.97 206.58 774.12 200.56 771.46 196.67 770.449 195.193 768.432 194.814 766.955 195.825 765.478 196.836 765.099 198.853 766.11 200.33 767.38 202.18 766.89 206.03 766.36 210.1 765.78 215.11 765 221.11 767 226.83L760.63 234.13 755.63 234.13C754.525 234.13 753.63 235.025 753.63 236.13L753.63 251.13C753.63 252.235 754.525 253.13 755.63 253.13L764.7 253.13C768.99 258.77 780.7 259.34 785.17 259.34L785.27 259.34 798 266.12C798.785 266.536 799.661 266.753 800.55 266.75 803.565 266.749 806.009 264.304 806.008 261.288 806.008 259.534 805.164 257.886 803.74 256.86L807.74 257.78C810.679 258.427 813.589 256.583 814.26 253.65 814.913 250.71 813.067 247.796 810.13 247.13L809.93 247.13 810.93 247.13C812.432 247.111 813.861 246.474 814.88 245.37ZM793.68 243.47C792.575 243.362 791.593 244.17 791.485 245.275 791.377 246.38 792.185 247.362 793.29 247.47L809.34 251C810.123 251.179 810.618 251.954 810.45 252.74 810.361 253.114 810.132 253.44 809.81 253.65 809.485 253.861 809.087 253.93 808.71 253.84L790.29 249.73C789.214 249.48 788.139 250.15 787.89 251.226 787.684 252.113 788.103 253.027 788.91 253.45L801.28 260C802.017 260.327 802.35 261.189 802.023 261.927 801.696 262.664 800.833 262.996 800.096 262.669 800.032 262.641 799.97 262.608 799.91 262.57L786.7 255.57C786.41 255.418 786.087 255.339 785.76 255.34L785.76 255.34C778.17 255.44 769.55 253.87 767.57 250.18 767.221 249.533 766.545 249.13 765.81 249.13L757.62 249.13 757.62 238.13 764.44 238.13C765.177 238.128 765.854 237.721 766.2 237.07 768.76 232.3 773.25 229.13 777.2 226.35L777.56 226.09C781.39 223.39 784.7 221.09 785.38 218.09 785.538 217.425 786.205 217.014 786.87 217.17 787.192 217.238 787.471 217.437 787.64 217.72 787.817 217.999 787.874 218.338 787.8 218.66 786.92 222.43 783.57 226.82 779.27 229.85L779.2 230 779.11 230.06C778.197 230.682 777.962 231.926 778.584 232.839 778.858 233.241 779.269 233.529 779.74 233.65 782.142 234.297 784.606 234.693 787.09 234.83 787.285 234.835 787.48 234.815 787.67 234.77L808.15 229.5C808.522 229.402 808.918 229.456 809.25 229.65 809.584 229.844 809.826 230.165 809.92 230.54 810.132 231.307 809.685 232.102 808.92 232.32L791.92 236.7C790.849 236.969 790.198 238.055 790.466 239.126 790.69 240.017 791.491 240.642 792.41 240.64L792.46 240.64 810.97 240.2 810.97 240.2C811.774 240.267 812.371 240.972 812.304 241.776 812.245 242.487 811.681 243.051 810.97 243.11Z" fill="#FFFFFF"/></g></svg>