<svg width="42" height="48" xmlns="http://www.w3.org/2000/svg" xmlns:xlink="http://www.w3.org/1999/xlink" overflow="hidden"><defs><clipPath id="clip0"><rect x="30" y="227" width="42" height="48"/></clipPath></defs><g clip-path="url(#clip0)" transform="translate(-30 -227)"><path d="M51 227C49.3406 227 48 228.341 48 230L48 231.8C41.1562 233.188 36 239.244 36 246.5L36 248.262C36 252.669 34.3781 256.925 31.4531 260.225L30.7594 261.003C29.9719 261.884 29.7844 263.15 30.2625 264.228 30.7406 265.306 31.8188 266 33 266L69 266C70.1813 266 71.25 265.306 71.7375 264.228 72.225 263.15 72.0281 261.884 71.2406 261.003L70.5469 260.225C67.6219 256.925 66 252.678 66 248.262L66 246.5C66 239.244 60.8438 233.188 54 231.8L54 230C54 228.341 52.6594 227 51 227ZM55.2469 273.247C56.3719 272.122 57 270.594 57 269L51 269 45 269C45 270.594 45.6281 272.122 46.7531 273.247 47.8781 274.372 49.4062 275 51 275 52.5938 275 54.1219 274.372 55.2469 273.247Z"/></g></svg>