<svg width="96" height="96" xmlns="http://www.w3.org/2000/svg" xmlns:xlink="http://www.w3.org/1999/xlink" overflow="hidden"><defs><clipPath id="clip0"><rect x="105" y="94" width="96" height="96"/></clipPath></defs><g clip-path="url(#clip0)" transform="translate(-105 -94)"><path d="M169.3 163.1C167.8 161.6 166.9 159.5 166.9 157.4L166.3 156.8C157.2 162.4 145.6 161.8 137.1 155.3L136.8 155.5C135.7 156.3 135 157.6 135 159L135 168 171 168 171 164.8 169.3 163.1Z"/><path d="M178.5 133.5C183.4 132.7 186.7 128 185.9 123.1 185.1 118.2 180.4 114.9 175.5 115.7 174.1 115.9 172.8 116.5 171.7 117.3 175.8 121.7 178.2 127.4 178.5 133.5Z"/><path d="M193.2 141.4C190.6 139.4 187.6 137.9 184.4 137.2 182.5 136.6 180.5 136.3 178.5 136.1 178.3 140.4 177 144.6 174.7 148.3L175.3 148.9C177.4 148.9 179.5 149.8 181 151.3L183.7 154 195 154 195 145C195 143.6 194.4 142.2 193.2 141.4Z"/><path d="M188.4 162.9 179 153.4C177.7 152.2 176 151.6 174.2 152L170.8 148.7C173.9 144.7 175.5 139.9 175.5 134.9 175.6 122.3 165.4 112 152.7 111.9 140 111.8 129.9 122 129.9 134.6 129.9 147.2 140 157.5 152.7 157.6 157.7 157.6 162.6 156 166.7 152.9L170.1 156.2C169.8 157.9 170.3 159.7 171.5 161L181 170.5C183 172.6 186.4 172.7 188.5 170.7 190.6 168.7 190.7 165.3 188.7 163.2 188.6 163.1 188.5 163 188.4 162.9L188.4 162.9ZM152.8 116.6C162.9 116.6 171 124.7 171 134.8 171 139.1 169.5 143.3 166.7 146.5 164.8 145.6 162.9 144.9 160.9 144.4 158.2 143.6 155.4 143.1 152.6 143.1 149.8 143.1 147 143.6 144.3 144.4 142.4 144.9 140.6 145.6 138.9 146.6 132.4 139 133.3 127.5 140.9 121 144.2 118.1 148.4 116.6 152.8 116.6Z"/><path d="M162.7 130.8C162.7 136.378 158.178 140.9 152.6 140.9 147.022 140.9 142.5 136.378 142.5 130.8 142.5 125.222 147.022 120.7 152.6 120.7 158.178 120.7 162.7 125.222 162.7 130.8Z"/><path d="M127 136.1C125.2 136.3 123.4 136.6 121.6 137.2 118.5 138.1 115.5 139.6 112.8 141.4 111.6 142.2 111 143.6 111 145L111 154 132.6 154C133 153.4 133.5 152.9 134.1 152.5 129.8 148 127.3 142.2 127 136.1Z"/><path d="M127 133.4C127.3 127.3 129.8 121.6 134 117.1 129.9 114.3 124.3 115.4 121.5 119.6 118.7 123.8 119.8 129.3 124 132.1 124.9 132.7 125.9 133.1 127 133.4Z"/></g></svg>