<svg width="75" height="75" xmlns="http://www.w3.org/2000/svg" xmlns:xlink="http://www.w3.org/1999/xlink" overflow="hidden"><defs><clipPath id="clip0"><rect x="795" y="7" width="75" height="75"/></clipPath></defs><g clip-path="url(#clip0)" transform="translate(-795 -7)"><path d="M820.781 31.0625C820.781 34.9458 817.633 38.0938 813.75 38.0938 809.867 38.0938 806.719 34.9458 806.719 31.0625 806.719 27.1792 809.867 24.0312 813.75 24.0312 817.633 24.0312 820.781 27.1792 820.781 31.0625Z" fill="#FFFFFF"/><path d="M858.281 31.0625C858.281 34.9458 855.133 38.0938 851.25 38.0938 847.367 38.0938 844.219 34.9458 844.219 31.0625 844.219 27.1792 847.367 24.0312 851.25 24.0312 855.133 24.0312 858.281 27.1792 858.281 31.0625Z" fill="#FFFFFF"/><path d="M846.562 64.9688 846.562 57.9375C846.562 56.8438 846.094 55.75 845.156 55.125 843.281 53.5625 840.781 52.4688 838.281 51.8438 836.562 51.375 834.531 50.9062 832.5 50.9062 830.625 50.9062 828.594 51.2188 826.719 51.8438 824.219 52.4688 821.875 53.7188 819.844 55.125 818.906 55.9062 818.438 56.8438 818.438 57.9375L818.438 64.9688 846.562 64.9688Z" fill="#FFFFFF"/><path d="M839.531 42C839.531 45.8833 836.383 49.0312 832.5 49.0312 828.617 49.0312 825.469 45.8833 825.469 42 825.469 38.1167 828.617 34.9688 832.5 34.9688 836.383 34.9688 839.531 38.1167 839.531 42Z" fill="#FFFFFF"/><path d="M863.906 44.1875C862.031 42.625 859.531 41.5312 857.031 40.9062 855.312 40.4375 853.281 39.9688 851.25 39.9688 849.375 39.9688 847.344 40.2812 845.469 40.9062 844.531 41.2188 843.594 41.5312 842.656 42L842.656 42.1562C842.656 44.8125 841.562 47.3125 839.844 49.0312 842.812 49.9688 845.156 51.2188 847.031 52.625 847.5 53.0938 847.969 53.4062 848.281 54.0312L865.312 54.0312 865.312 47C865.312 45.9062 864.844 44.8125 863.906 44.1875Z" fill="#FFFFFF"/><path d="M817.969 52.625 817.969 52.625C820.156 51.0625 822.656 49.8125 825.156 49.0312 823.438 47.1562 822.344 44.8125 822.344 42.1562 822.344 42 822.344 42 822.344 41.8438 821.406 41.5312 820.469 41.0625 819.531 40.9062 817.812 40.4375 815.781 39.9688 813.75 39.9688 811.875 39.9688 809.844 40.2812 807.969 40.9062 805.469 41.6875 803.125 42.7812 801.094 44.1875 800.156 44.8125 799.688 45.9062 799.688 47L799.688 54.0312 816.562 54.0312C817.031 53.4062 817.344 53.0938 817.969 52.625Z" fill="#FFFFFF"/></g></svg>