<svg width="59" height="59" xmlns="http://www.w3.org/2000/svg" xmlns:xlink="http://www.w3.org/1999/xlink" overflow="hidden"><defs><clipPath id="clip0"><rect x="656" y="14" width="59" height="59"/></clipPath></defs><g clip-path="url(#clip0)" transform="translate(-656 -14)"><path d="M670.135 22.6042 700.865 22.6042 700.865 64.3958 670.135 64.3958 670.135 22.6042ZM666.448 68.0833 704.552 68.0833 704.552 18.9167 666.448 18.9167 666.448 68.0833Z" fill="#FFFFFF"/><path d="M686.729 28.1354 697.177 28.1354 697.177 30.5938 686.729 30.5938Z" fill="#FFFFFF"/><path d="M686.729 37.9688 697.177 37.9688 697.177 40.4271 686.729 40.4271Z" fill="#FFFFFF"/><path d="M686.729 57.6354 697.177 57.6354 697.177 60.0938 686.729 60.0938Z" fill="#FFFFFF"/><path d="M686.729 47.8021 697.177 47.8021 697.177 50.2604 686.729 50.2604Z" fill="#FFFFFF"/><path d="M682.919 26.7833 681.198 25.0625 677.142 29.1187 675.544 27.5208 673.823 29.2417 677.142 32.5604Z" fill="#FFFFFF"/><path d="M682.919 36.6167 681.198 34.8958 677.142 38.9521 675.544 37.3542 673.823 39.075 677.142 42.3937Z" fill="#FFFFFF"/><path d="M682.919 46.45 681.198 44.7292 677.142 48.7854 675.544 47.1875 673.823 48.9083 677.142 52.2271Z" fill="#FFFFFF"/><path d="M682.919 56.1604 681.198 54.4396 677.142 58.4958 675.544 56.8979 673.823 58.6187 677.142 61.9375Z" fill="#FFFFFF"/></g></svg>