<svg width="96" height="96" xmlns="http://www.w3.org/2000/svg" xmlns:xlink="http://www.w3.org/1999/xlink" overflow="hidden"><defs><clipPath id="clip0"><rect x="639" y="179" width="96" height="96"/></clipPath></defs><g clip-path="url(#clip0)" transform="translate(-639 -179)"><path d="M687 239C680.4 239 675 233.6 675 227 675 220.4 680.4 215 687 215 693.6 215 699 220.4 699 227 699 233.6 693.6 239 687 239ZM714 219.5C713.4 217.3 712.5 215.2 711.4 213.3L713.9 205.8 708.2 200.1 700.7 202.6C698.7 201.5 696.6 200.6 694.4 200L691 193 683 193 679.5 200C677.3 200.6 675.2 201.5 673.3 202.6L665.8 200.1 660.1 205.8 662.6 213.3C661.5 215.3 660.6 217.4 660 219.6L653 223 653 231 660 234.5C660.6 236.7 661.5 238.8 662.6 240.7L660.1 248.2 665.8 253.9 673.3 251.4C675.3 252.5 677.4 253.4 679.6 254L683.1 261 691.1 261 694.6 254C696.8 253.4 698.9 252.5 700.8 251.4L708.3 253.9 714 248.2 711.5 240.7C712.6 238.7 713.5 236.6 714.1 234.4L721.1 230.9 721.1 222.9 714 219.5Z" fill="#FFFFFF"/></g></svg>