<svg width="47" height="61" xmlns="http://www.w3.org/2000/svg" xmlns:xlink="http://www.w3.org/1999/xlink" overflow="hidden"><defs><clipPath id="clip0"><rect x="82" y="778" width="47" height="61"/></clipPath></defs><g clip-path="url(#clip0)" transform="translate(-82 -778)"><path d="M89.8673 801.529C87.7607 801.529 86.0534 803.233 86.0534 805.335L86.0534 831.669C86.0534 833.771 87.7607 835.475 89.8673 835.475L121.153 835.475C123.259 835.475 124.967 833.771 124.967 831.669L124.967 805.335C124.967 803.233 123.259 801.529 121.153 801.529ZM86.6067 798 124.394 798C126.938 798 129 800.058 129 802.597L129 834.403C129 836.942 126.938 839 124.394 839L86.6067 839C84.0622 839 82.0002 836.942 82.0002 834.403L82.0002 802.597C82.0002 800.058 84.0622 798 86.6067 798Z" fill-rule="evenodd"/><path d="M105.941 778.988C114.777 778.988 121.941 786.279 121.941 795.274L121.673 797.988 121.616 797.42C120.124 789.999 113.673 784.417 105.941 784.417 98.2101 784.417 91.7588 789.999 90.2662 797.42L90.2101 797.988 89.9414 795.274C89.9414 786.279 97.1059 778.988 105.941 778.988Z" fill-rule="evenodd"/></g></svg>