<svg width="42" height="49" xmlns="http://www.w3.org/2000/svg" xmlns:xlink="http://www.w3.org/1999/xlink" overflow="hidden"><defs><clipPath id="clip0"><rect x="748" y="285" width="42" height="49"/></clipPath></defs><g clip-path="url(#clip0)" transform="translate(-748 -285)"><path d="M21 0C19.3406 0 18 1.34063 18 3L18 4.8C11.1562 6.1875 6 12.2438 6 19.5L6 21.2625C6 25.6687 4.37813 29.925 1.45312 33.225L0.759375 34.0031C-0.028125 34.8844-0.215625 36.15 0.2625 37.2281 0.740625 38.3063 1.81875 39 3 39L39 39C40.1813 39 41.25 38.3063 41.7375 37.2281 42.225 36.15 42.0281 34.8844 41.2406 34.0031L40.5469 33.225C37.6219 29.925 36 25.6781 36 21.2625L36 19.5C36 12.2438 30.8438 6.1875 24 4.8L24 3C24 1.34063 22.6594 0 21 0ZM25.2469 46.2469C26.3719 45.1219 27 43.5938 27 42L21 42 15 42C15 43.5938 15.6281 45.1219 16.7531 46.2469 17.8781 47.3719 19.4062 48 21 48 22.5938 48 24.1219 47.3719 25.2469 46.2469Z" fill="#FFFFFF" transform="matrix(1 0 0 1.02083 748 285)"/></g></svg>