<svg width="142" height="63" xmlns="http://www.w3.org/2000/svg" xmlns:xlink="http://www.w3.org/1999/xlink" overflow="hidden"><defs><clipPath id="clip0"><rect x="1924" y="1005" width="142" height="63"/></clipPath></defs><g clip-path="url(#clip0)" transform="translate(-1924 -1005)"><path d="M1924 1013C1924 1008.58 1927.58 1005 1932 1005L2058 1005C2062.42 1005 2066 1008.58 2066 1013L2066 1013C2066 1017.42 2062.42 1021 2058 1021L1932 1021C1927.58 1021 1924 1017.42 1924 1013Z" fill="#FFFFFF" fill-rule="evenodd"/><path d="M1938 1037C1938 1033.13 1941.13 1030 1945 1030L2045 1030C2048.87 1030 2052 1033.13 2052 1037L2052 1037C2052 1040.87 2048.87 1044 2045 1044L1945 1044C1941.13 1044 1938 1040.87 1938 1037Z" fill="#FFFFFF" fill-rule="evenodd"/><path d="M1959 1060.5C1959 1056.36 1962.36 1053 1966.5 1053L2026.5 1053C2030.64 1053 2034 1056.36 2034 1060.5L2034 1060.5C2034 1064.64 2030.64 1068 2026.5 1068L1966.5 1068C1962.36 1068 1959 1064.64 1959 1060.5Z" fill="#FFFFFF" fill-rule="evenodd"/></g></svg>