<svg width="60" height="61" xmlns="http://www.w3.org/2000/svg" xmlns:xlink="http://www.w3.org/1999/xlink" overflow="hidden"><defs><clipPath id="clip0"><rect x="722" y="14" width="60" height="61"/></clipPath></defs><g clip-path="url(#clip0)" transform="translate(-722 -14)"><path d="M47.5 46.25C47.5 46.9375 46.9375 47.5 46.25 47.5 45.5625 47.5 45 46.9375 45 46.25L45 16.25 47.5 16.25 47.5 46.25ZM13.75 47.5C13.0625 47.5 12.5 46.9375 12.5 46.25L12.5 12.5 41.25 12.5 41.25 46.25C41.25 46.6875 41.3125 47.125 41.4375 47.5L13.75 47.5ZM45 12.5 45 8.75 8.75 8.75 8.75 46.25C8.75 49 11 51.25 13.75 51.25L46.25 51.25C49 51.25 51.25 49 51.25 46.25L51.25 12.5 45 12.5Z" fill="#FFFFFF" transform="matrix(1 0 0 1.01667 722 14)"/><path d="M15 16.25 38.75 16.25 38.75 18.75 15 18.75Z" fill="#FFFFFF" transform="matrix(1 0 0 1.01667 722 14)"/><path d="M28.125 21.25 38.75 21.25 38.75 23.75 28.125 23.75Z" fill="#FFFFFF" transform="matrix(1 0 0 1.01667 722 14)"/><path d="M28.125 26.25 38.75 26.25 38.75 28.75 28.125 28.75Z" fill="#FFFFFF" transform="matrix(1 0 0 1.01667 722 14)"/><path d="M15 21.25 25.625 21.25 25.625 28.75 15 28.75Z" fill="#FFFFFF" transform="matrix(1 0 0 1.01667 722 14)"/><path d="M15 31.25 38.75 31.25 38.75 33.75 15 33.75Z" fill="#FFFFFF" transform="matrix(1 0 0 1.01667 722 14)"/><path d="M28.125 36.25 38.75 36.25 38.75 43.75 28.125 43.75Z" fill="#FFFFFF" transform="matrix(1 0 0 1.01667 722 14)"/><path d="M15 36.25 25.625 36.25 25.625 38.75 15 38.75Z" fill="#FFFFFF" transform="matrix(1 0 0 1.01667 722 14)"/><path d="M15 41.25 25.625 41.25 25.625 43.75 15 43.75Z" fill="#FFFFFF" transform="matrix(1 0 0 1.01667 722 14)"/></g></svg>