<svg width="61" height="61" xmlns="http://www.w3.org/2000/svg" xmlns:xlink="http://www.w3.org/1999/xlink" overflow="hidden"><defs><clipPath id="clip0"><rect x="72" y="14" width="61" height="61"/></clipPath></defs><g clip-path="url(#clip0)" transform="translate(-72 -14)"><path d="M120.292 61.0208C120.292 61.7198 119.72 62.2917 119.021 62.2917 118.322 62.2917 117.75 61.7198 117.75 61.0208L117.75 30.5208 120.292 30.5208 120.292 61.0208ZM85.9792 62.2917C85.2802 62.2917 84.7083 61.7198 84.7083 61.0208L84.7083 26.7083 113.938 26.7083 113.938 61.0208C113.938 61.4656 114.001 61.9104 114.128 62.2917L85.9792 62.2917ZM117.75 26.7083 117.75 22.8958 80.8958 22.8958 80.8958 61.0208C80.8958 63.8167 83.1833 66.1042 85.9792 66.1042L119.021 66.1042C121.817 66.1042 124.104 63.8167 124.104 61.0208L124.104 26.7083 117.75 26.7083Z"/><path d="M87.25 30.5208 111.396 30.5208 111.396 33.0625 87.25 33.0625Z"/><path d="M100.594 35.6042 111.396 35.6042 111.396 38.1458 100.594 38.1458Z"/><path d="M100.594 40.6875 111.396 40.6875 111.396 43.2292 100.594 43.2292Z"/><path d="M87.25 35.6042 98.0521 35.6042 98.0521 43.2292 87.25 43.2292Z"/><path d="M87.25 45.7708 111.396 45.7708 111.396 48.3125 87.25 48.3125Z"/><path d="M100.594 50.8542 111.396 50.8542 111.396 58.4792 100.594 58.4792Z"/><path d="M87.25 50.8542 98.0521 50.8542 98.0521 53.3958 87.25 53.3958Z"/><path d="M87.25 55.9375 98.0521 55.9375 98.0521 58.4792 87.25 58.4792Z"/></g></svg>