<svg width="407" height="407" xmlns="http://www.w3.org/2000/svg" xmlns:xlink="http://www.w3.org/1999/xlink" overflow="hidden"><defs><clipPath id="clip0"><rect x="830" y="845" width="407" height="407"/></clipPath></defs><g clip-path="url(#clip0)" transform="translate(-830 -845)"><path d="M844 1048.5C844 943.842 928.842 859 1033.5 859 1138.16 859 1223 943.842 1223 1048.5 1223 1153.16 1138.16 1238 1033.5 1238 928.842 1238 844 1153.16 844 1048.5Z" stroke="#FFFFFF" stroke-width="27.5" stroke-miterlimit="8" fill="none" fill-rule="evenodd"/><path d="M938 1007.72C938 997.383 946.383 989 956.724 989L1110.28 989C1120.62 989 1129 997.383 1129 1007.72L1129 1137.28C1129 1147.62 1120.62 1156 1110.28 1156L956.724 1156C946.383 1156 938 1147.62 938 1137.28Z" fill="#FFFFFF" fill-rule="evenodd"/><path d="M1033 913C1069.45 913 1099 942.165 1099 978.143L1097.89 989 1097.66 986.729C1091.5 957.044 1064.89 934.714 1033 934.714 1001.11 934.714 974.495 957.044 968.341 986.729L968.109 989 967 978.143C967 942.165 996.549 913 1033 913Z" fill="#FFFFFF" fill-rule="evenodd"/></g></svg>