<svg width="156" height="155" xmlns="http://www.w3.org/2000/svg" xmlns:xlink="http://www.w3.org/1999/xlink" overflow="hidden"><defs><clipPath id="clip0"><rect x="2174" y="1001" width="156" height="155"/></clipPath><clipPath id="clip1"><rect x="2186" y="1014" width="130" height="128"/></clipPath><clipPath id="clip2"><rect x="2186" y="1014" width="130" height="128"/></clipPath><clipPath id="clip3"><rect x="2186" y="1014" width="130" height="128"/></clipPath></defs><g clip-path="url(#clip0)" transform="translate(-2174 -1001)"><path d="M2175.5 1078.5C2175.5 1036.53 2209.75 1002.5 2252 1002.5 2294.25 1002.5 2328.5 1036.53 2328.5 1078.5 2328.5 1120.47 2294.25 1154.5 2252 1154.5 2209.75 1154.5 2175.5 1120.47 2175.5 1078.5Z" stroke="#FFFFFF" stroke-width="3.4375" stroke-miterlimit="8" fill="none" fill-rule="evenodd"/><g clip-path="url(#clip1)"><g clip-path="url(#clip2)"><g clip-path="url(#clip3)"><path d="M85.3332 40C85.3332 51.782 75.782 61.3333 63.9999 61.3333 52.2179 61.3333 42.6666 51.782 42.6666 40 42.6666 28.2179 52.2179 18.6666 63.9999 18.6666 75.782 18.6666 85.3332 28.2179 85.3332 40Z" stroke="#FFFFFF" stroke-width="3.45945" fill="none" transform="matrix(1.00781 0 0 1 2187 1014)"/><path d="M106.667 109.333 106.667 87.9999C106.667 84.7999 105.067 81.5999 102.4 79.4666 96.5332 74.6666 89.0666 71.4666 81.5999 69.3333 76.2666 67.7333 70.3999 66.6666 63.9999 66.6666 58.1333 66.6666 52.2666 67.7333 46.4 69.3333 38.9333 71.4666 31.4666 75.1999 25.6 79.4666 22.9333 81.5999 21.3333 84.7999 21.3333 87.9999L21.3333 109.333 106.667 109.333Z" stroke="#FFFFFF" stroke-width="3.45945" fill="none" transform="matrix(1.00781 0 0 1 2187 1014)"/></g></g></g></g></svg>