<svg width="407" height="407" xmlns="http://www.w3.org/2000/svg" xmlns:xlink="http://www.w3.org/1999/xlink" overflow="hidden"><defs><clipPath id="clip0"><rect x="238" y="231" width="407" height="407"/></clipPath><clipPath id="clip1"><rect x="277" y="251" width="331" height="331"/></clipPath><clipPath id="clip2"><rect x="277" y="251" width="331" height="331"/></clipPath><clipPath id="clip3"><rect x="277" y="251" width="331" height="331"/></clipPath></defs><g clip-path="url(#clip0)" transform="translate(-238 -231)"><g clip-path="url(#clip1)"><g clip-path="url(#clip2)"><g clip-path="url(#clip3)"><path d="M497 355.125C497 385.501 472.376 410.125 442 410.125 411.624 410.125 387 385.501 387 355.125 387 324.749 411.624 300.125 442 300.125 472.376 300.125 497 324.749 497 355.125Z"/><path d="M552 533.875 552 478.875C552 470.625 547.875 462.375 541 456.875 525.875 444.5 506.625 436.25 487.375 430.75 473.625 426.625 458.5 423.875 442 423.875 426.875 423.875 411.75 426.625 396.625 430.75 377.375 436.25 358.125 445.875 343 456.875 336.125 462.375 332 470.625 332 478.875L332 533.875 552 533.875Z"/></g></g></g><path d="M252 434.5C252 329.842 336.842 245 441.5 245 546.158 245 631 329.842 631 434.5 631 539.158 546.158 624 441.5 624 336.842 624 252 539.158 252 434.5Z" stroke="#000000" stroke-width="27.5" stroke-miterlimit="8" fill="none" fill-rule="evenodd"/></g></svg>