<svg width="407" height="407" xmlns="http://www.w3.org/2000/svg" xmlns:xlink="http://www.w3.org/1999/xlink" overflow="hidden"><defs><clipPath id="clip0"><rect x="238" y="786" width="407" height="407"/></clipPath><clipPath id="clip1"><rect x="277" y="807" width="331" height="331"/></clipPath><clipPath id="clip2"><rect x="277" y="807" width="331" height="331"/></clipPath><clipPath id="clip3"><rect x="277" y="807" width="331" height="331"/></clipPath></defs><g clip-path="url(#clip0)" transform="translate(-238 -786)"><g clip-path="url(#clip1)"><g clip-path="url(#clip2)"><g clip-path="url(#clip3)"><path d="M497 910.125C497 940.501 472.376 965.125 442 965.125 411.624 965.125 387 940.501 387 910.125 387 879.749 411.624 855.125 442 855.125 472.376 855.125 497 879.749 497 910.125Z" fill="#FFFFFF"/><path d="M552 1088.88 552 1033.88C552 1025.63 547.875 1017.38 541 1011.88 525.875 999.5 506.625 991.25 487.375 985.75 473.625 981.625 458.5 978.875 442 978.875 426.875 978.875 411.75 981.625 396.625 985.75 377.375 991.25 358.125 1000.88 343 1011.88 336.125 1017.38 332 1025.63 332 1033.88L332 1088.88 552 1088.88Z" fill="#FFFFFF"/></g></g></g><path d="M252 989.5C252 884.842 336.842 800 441.5 800 546.158 800 631 884.842 631 989.5 631 1094.16 546.158 1179 441.5 1179 336.842 1179 252 1094.16 252 989.5Z" stroke="#FFFFFF" stroke-width="27.5" stroke-miterlimit="8" fill="none" fill-rule="evenodd"/></g></svg>